<svg viewBox="0 0 40 32" xmlns="http://www.w3.org/2000/svg">
<path d="M8 2h14q0.875 0 1.438 0.563t0.563 1.438v20h-8.313q-0.688-1.75-2.188-2.875-1.5-1.063-3.5-1.125-2.375 0.063-4 1.5v-3.5h-2v8q0.063 2.563 1.75 4.25t4.25 1.75q2.563-0.063 4.25-1.75t1.75-4.25h8q0.063 2.563 1.75 4.25t4.25 1.75q2.563-0.063 4.25-1.75t1.75-4.25h3q0.938-0.063 1-1-0.063-0.938-1-1h-1v-9.25q0-1.125-0.75-1.938l-4.875-5.75q-0.938-1.063-2.313-1.063h-4.063v-2q-0.063-1.688-1.188-2.813t-2.813-1.188h-14q-1.688 0.063-2.813 1.188t-1.188 2.813v2h-3q-0.938 0.063-1 1 0.063 0.938 1 1h14q0.938-0.063 1-1-0.063-0.938-1-1h-9v-2q0-0.875 0.563-1.438t1.438-0.563v0zM35.688 14h-9.688v-6h4.063q0.5 0 0.75 0.375l4.875 5.625zM26 16h10v8h-0.313q-0.688-1.75-2.188-2.875-1.5-1.063-3.5-1.125-2.375 0.063-4 1.5v-5.5zM6 26q0.063-2.25 2-3.438 2-1.125 4 0 1.938 1.188 2 3.438-0.063 2.25-2 3.438-2 1.125-4 0-1.938-1.188-2-3.438v0zM30 22q2.25 0.063 3.438 2 1.125 2 0 4-1.188 1.938-3.438 2-2.25-0.063-3.438-2-1.125-2 0-4 1.188-1.938 3.438-2v0zM3 10q-0.938 0.063-1 1 0.063 0.938 1 1h14q0.938-0.063 1-1-0.063-0.938-1-1h-14zM1 14q-0.938 0.063-1 1 0.063 0.938 1 1h14q0.938-0.063 1-1-0.063-0.938-1-1h-14z"></path>
</svg>